<mxfile host="app.diagrams.net" modified="2022-01-25T20:29:10.767Z" agent="5.0 (X11)" etag="irQAqO0OBAoWbRwHILyH" version="16.4.3" type="github" pages="2">
  <diagram id="nSknkcODzsTG4G_3UIwG" name="Page-1">
    <mxGraphModel dx="1350" dy="793" grid="1" gridSize="10" guides="1" tooltips="1" connect="1" arrows="1" fold="1" page="1" pageScale="1" pageWidth="827" pageHeight="1169" math="0" shadow="0">
      <root>
        <mxCell id="0" />
        <mxCell id="1" parent="0" />
        <mxCell id="KtcMa4PKy6_l-OY6IkqE-1" value="Calendrier" style="swimlane;startSize=40;strokeColor=none;fontSize=20;strokeWidth=0;fillColor=#808080;fontColor=#F5F5F5;" parent="1" vertex="1">
          <mxGeometry y="1" width="830" height="1139" as="geometry" />
        </mxCell>
        <mxCell id="lG-33SfAssL8Ct2ib1fu-3" value="&lt;b&gt;&lt;font style=&quot;font-size: 16px&quot;&gt;2023 - 2024&lt;/font&gt;&lt;/b&gt;" style="rounded=0;whiteSpace=wrap;html=1;shadow=0;sketch=0;strokeColor=none;fillColor=#E6E6E6;" parent="KtcMa4PKy6_l-OY6IkqE-1" vertex="1">
          <mxGeometry x="70" y="584" width="730" height="41" as="geometry" />
        </mxCell>
        <mxCell id="lG-33SfAssL8Ct2ib1fu-4" value="&lt;b&gt;&lt;font style=&quot;font-size: 16px&quot;&gt;2022 - 2023&lt;/font&gt;&lt;/b&gt;" style="rounded=0;whiteSpace=wrap;html=1;shadow=0;sketch=0;strokeColor=none;fillColor=#E6E6E6;" parent="KtcMa4PKy6_l-OY6IkqE-1" vertex="1">
          <mxGeometry x="70" y="51" width="730" height="41" as="geometry" />
        </mxCell>
        <mxCell id="lG-33SfAssL8Ct2ib1fu-5" value="&lt;b&gt;Année 1&lt;/b&gt;" style="rounded=0;whiteSpace=wrap;html=1;shadow=0;sketch=0;fontSize=16;strokeColor=none;fillColor=#E6E6E6;" parent="KtcMa4PKy6_l-OY6IkqE-1" vertex="1">
          <mxGeometry y="51" width="70" height="40" as="geometry" />
        </mxCell>
        <mxCell id="lG-33SfAssL8Ct2ib1fu-6" value="&lt;b&gt;Année 2&lt;br&gt;&lt;/b&gt;" style="rounded=0;whiteSpace=wrap;html=1;shadow=0;sketch=0;fontSize=16;strokeColor=none;fillColor=#E6E6E6;" parent="KtcMa4PKy6_l-OY6IkqE-1" vertex="1">
          <mxGeometry y="584" width="70" height="40" as="geometry" />
        </mxCell>
        <mxCell id="KtcMa4PKy6_l-OY6IkqE-16" value="Juin à&#xa;Septembre" style="swimlane;horizontal=0;startSize=69;fontSize=15;strokeWidth=1;strokeColor=none;fillColor=#D5E8E8;" parent="KtcMa4PKy6_l-OY6IkqE-1" vertex="1">
          <mxGeometry x="1" y="451.5" width="781" height="120" as="geometry" />
        </mxCell>
        <mxCell id="KtcMa4PKy6_l-OY6IkqE-17" value="" style="edgeStyle=orthogonalEdgeStyle;rounded=0;orthogonalLoop=1;jettySize=auto;html=1;fontFamily=Garamond;fontSize=17;endSize=6;strokeWidth=3;startArrow=none;" parent="KtcMa4PKy6_l-OY6IkqE-16" edge="1">
          <mxGeometry relative="1" as="geometry">
            <mxPoint x="380" y="176" as="sourcePoint" />
            <mxPoint x="380" y="176" as="targetPoint" />
          </mxGeometry>
        </mxCell>
        <mxCell id="KtcMa4PKy6_l-OY6IkqE-18" value="&lt;div align=&quot;left&quot;&gt;Préparer le texte :&lt;/div&gt;&lt;div align=&quot;left&quot;&gt;- Normalisation&lt;/div&gt;&lt;div align=&quot;left&quot;&gt;- Tokenisation&lt;/div&gt;&lt;div align=&quot;left&quot;&gt;- Lemmatisation&lt;br&gt;&lt;/div&gt;&lt;div&gt;- Racinisation&lt;br&gt;&lt;/div&gt;" style="rounded=0;whiteSpace=wrap;html=1;dashed=1;fontSize=15;dashPattern=1 4;align=left;fillColor=#D8F3F5;strokeColor=none;" parent="KtcMa4PKy6_l-OY6IkqE-16" vertex="1">
          <mxGeometry x="336" y="13.5" width="220" height="93" as="geometry" />
        </mxCell>
        <mxCell id="KtcMa4PKy6_l-OY6IkqE-19" value="&lt;div&gt;420h&lt;/div&gt;&lt;div&gt;MVR, EB, DF&lt;/div&gt;&lt;div&gt;+&lt;br&gt;&lt;/div&gt;&lt;div&gt;3 doctorant·e·s&lt;/div&gt;&lt;div&gt;3 maîtrisant·e·s&lt;br&gt;&lt;/div&gt;" style="rounded=0;whiteSpace=wrap;html=1;dashed=1;fontSize=15;dashPattern=1 4;align=center;fillColor=#DFFAFC;strokeColor=none;" parent="KtcMa4PKy6_l-OY6IkqE-16" vertex="1">
          <mxGeometry x="579" y="13.5" width="220" height="93" as="geometry" />
        </mxCell>
        <mxCell id="KtcMa4PKy6_l-OY6IkqE-20" value="&lt;b&gt;3.&lt;/b&gt; &lt;b&gt;Prétraitement du texte&lt;/b&gt;" style="rounded=0;whiteSpace=wrap;html=1;dashed=1;fontSize=15;dashPattern=1 4;align=center;fillColor=#D5E8E8;strokeColor=none;gradientColor=none;gradientDirection=east;" parent="KtcMa4PKy6_l-OY6IkqE-16" vertex="1">
          <mxGeometry x="93" y="31.5" width="220" height="57" as="geometry" />
        </mxCell>
        <mxCell id="KtcMa4PKy6_l-OY6IkqE-26" value="Janvier à&#xa;Avril" style="swimlane;horizontal=0;startSize=69;fontSize=15;strokeWidth=1;strokeColor=none;fillColor=#D5E8E8;" parent="KtcMa4PKy6_l-OY6IkqE-1" vertex="1">
          <mxGeometry x="1" y="744" width="780" height="120" as="geometry" />
        </mxCell>
        <mxCell id="KtcMa4PKy6_l-OY6IkqE-27" value="" style="edgeStyle=orthogonalEdgeStyle;rounded=0;orthogonalLoop=1;jettySize=auto;html=1;fontFamily=Garamond;fontSize=17;endSize=6;strokeWidth=3;startArrow=none;" parent="KtcMa4PKy6_l-OY6IkqE-26" edge="1">
          <mxGeometry relative="1" as="geometry">
            <mxPoint x="380" y="139" as="sourcePoint" />
            <mxPoint x="380" y="139" as="targetPoint" />
          </mxGeometry>
        </mxCell>
        <mxCell id="KtcMa4PKy6_l-OY6IkqE-28" value="&lt;div align=&quot;left&quot;&gt;Confronter les résultats avec la liste des variations identifiées manuellement.&lt;br&gt;&lt;/div&gt;" style="rounded=0;whiteSpace=wrap;html=1;dashed=1;fontSize=15;dashPattern=1 4;align=center;fillColor=#D8F3F5;strokeColor=none;" parent="KtcMa4PKy6_l-OY6IkqE-26" vertex="1">
          <mxGeometry x="337" y="13.5" width="220" height="93" as="geometry" />
        </mxCell>
        <mxCell id="KtcMa4PKy6_l-OY6IkqE-29" value="&lt;div&gt;400h&lt;/div&gt;&lt;div&gt;&lt;br&gt;&lt;/div&gt;&lt;div&gt;MVR, DF, EB&lt;/div&gt;&lt;div&gt;+&lt;br&gt;&lt;/div&gt;&lt;div&gt;1&amp;nbsp; doctorant·e&lt;br&gt;&lt;/div&gt;" style="rounded=0;whiteSpace=wrap;html=1;dashed=1;fontSize=15;dashPattern=1 4;align=center;fillColor=#DFFAFC;strokeColor=none;" parent="KtcMa4PKy6_l-OY6IkqE-26" vertex="1">
          <mxGeometry x="579" y="13.5" width="220" height="93" as="geometry" />
        </mxCell>
        <mxCell id="KtcMa4PKy6_l-OY6IkqE-30" value="&lt;b&gt;5.&lt;/b&gt; &lt;b&gt;Analyse des résultats&lt;/b&gt;" style="rounded=0;whiteSpace=wrap;html=1;dashed=1;fontSize=15;dashPattern=1 4;align=center;fillColor=#D5E8E8;strokeColor=none;gradientColor=none;gradientDirection=east;" parent="KtcMa4PKy6_l-OY6IkqE-26" vertex="1">
          <mxGeometry x="95" y="31.5" width="220" height="57" as="geometry" />
        </mxCell>
        <mxCell id="KtcMa4PKy6_l-OY6IkqE-36" value="Juin à&#xa;Septembre" style="swimlane;horizontal=0;startSize=69;fontSize=15;strokeWidth=1;strokeColor=none;fillColor=#E0BF5A;" parent="KtcMa4PKy6_l-OY6IkqE-1" vertex="1">
          <mxGeometry x="1" y="984" width="799" height="126" as="geometry" />
        </mxCell>
        <mxCell id="KtcMa4PKy6_l-OY6IkqE-37" value="" style="edgeStyle=orthogonalEdgeStyle;rounded=0;orthogonalLoop=1;jettySize=auto;html=1;fontFamily=Garamond;fontSize=17;endSize=6;strokeWidth=3;startArrow=none;" parent="KtcMa4PKy6_l-OY6IkqE-36" edge="1">
          <mxGeometry relative="1" as="geometry">
            <mxPoint x="380" y="139" as="sourcePoint" />
            <mxPoint x="380" y="139" as="targetPoint" />
          </mxGeometry>
        </mxCell>
        <mxCell id="KtcMa4PKy6_l-OY6IkqE-38" value="&lt;div align=&quot;left&quot;&gt;Déconstruire et expliquer l&#39;algorithme final dans toutes ses composantes.&lt;br&gt;&lt;/div&gt;" style="rounded=0;whiteSpace=wrap;html=1;dashed=1;fontSize=15;dashPattern=1 4;align=center;fillColor=#F0CC60;strokeColor=none;" parent="KtcMa4PKy6_l-OY6IkqE-36" vertex="1">
          <mxGeometry x="337" y="13.5" width="220" height="93" as="geometry" />
        </mxCell>
        <mxCell id="KtcMa4PKy6_l-OY6IkqE-39" value="&lt;div&gt;400h&lt;/div&gt;&lt;div&gt;&lt;br&gt;&lt;/div&gt;&lt;div&gt;MVR, EB, DF&lt;/div&gt;&lt;div&gt;+&lt;br&gt;&lt;/div&gt;&lt;div&gt;1 doctorant·e&lt;br&gt;&lt;/div&gt;" style="rounded=0;whiteSpace=wrap;html=1;dashed=1;fontSize=15;dashPattern=1 4;align=center;fillColor=#F2CE61;strokeColor=none;" parent="KtcMa4PKy6_l-OY6IkqE-36" vertex="1">
          <mxGeometry x="579" y="13.5" width="220" height="93" as="geometry" />
        </mxCell>
        <mxCell id="KtcMa4PKy6_l-OY6IkqE-40" value="&lt;b&gt;Préparation à la production et à la diffusion des résultats&lt;/b&gt;" style="rounded=0;whiteSpace=wrap;html=1;dashed=1;fontSize=15;dashPattern=1 4;align=center;fillColor=#E8C55D;strokeColor=none;" parent="KtcMa4PKy6_l-OY6IkqE-36" vertex="1">
          <mxGeometry x="95" y="31.5" width="220" height="57" as="geometry" />
        </mxCell>
        <mxCell id="R3BeI2WN0M2upQm-vhoh-3" value="&lt;font style=&quot;font-size: 15px&quot;&gt;&lt;b&gt;&lt;font style=&quot;font-size: 15px&quot;&gt;MVR : Marcello Vitali-Rosati, EB : Elsa Bouchard, DF : Dominic Forest&lt;/font&gt;&lt;/b&gt;&lt;/font&gt;" style="rounded=0;whiteSpace=wrap;html=1;strokeColor=none;rotation=-90;fillColor=none;" parent="KtcMa4PKy6_l-OY6IkqE-1" vertex="1">
          <mxGeometry x="456" y="595" width="720" height="20" as="geometry" />
        </mxCell>
        <mxCell id="KtcMa4PKy6_l-OY6IkqE-11" value="Janvier à Juin" style="swimlane;horizontal=0;startSize=69;fontSize=15;strokeWidth=1;strokeColor=none;fillColor=#A9D4A9;" parent="1" vertex="1">
          <mxGeometry y="227" width="800" height="225" as="geometry" />
        </mxCell>
        <mxCell id="KtcMa4PKy6_l-OY6IkqE-12" value="" style="edgeStyle=orthogonalEdgeStyle;rounded=0;orthogonalLoop=1;jettySize=auto;html=1;fontFamily=Garamond;fontSize=17;endSize=6;strokeWidth=3;startArrow=none;" parent="KtcMa4PKy6_l-OY6IkqE-11" edge="1">
          <mxGeometry relative="1" as="geometry">
            <mxPoint x="380" y="139" as="sourcePoint" />
            <mxPoint x="380" y="139" as="targetPoint" />
          </mxGeometry>
        </mxCell>
        <mxCell id="KtcMa4PKy6_l-OY6IkqE-13" value="&lt;div align=&quot;left&quot;&gt;&lt;font style=&quot;font-size: 14px&quot;&gt;- Finaliser la définition opérationnelle des variations&lt;/font&gt;&lt;br&gt;&lt;font style=&quot;font-size: 14px&quot;&gt;- Revoir les variations listées sur la base de cette définition&lt;/font&gt;&lt;/div&gt;" style="rounded=0;whiteSpace=wrap;html=1;dashed=1;fontSize=15;dashPattern=1 4;align=left;fillColor=#B5E3B5;strokeColor=none;" parent="KtcMa4PKy6_l-OY6IkqE-11" vertex="1">
          <mxGeometry x="338" y="116.5" width="220" height="93" as="geometry" />
        </mxCell>
        <mxCell id="KtcMa4PKy6_l-OY6IkqE-14" value="EB, DF, MVR" style="rounded=0;whiteSpace=wrap;html=1;dashed=1;fontSize=15;dashPattern=1 4;align=center;fillColor=#BDEDBD;strokeColor=none;" parent="KtcMa4PKy6_l-OY6IkqE-11" vertex="1">
          <mxGeometry x="580" y="118.5" width="220" height="93" as="geometry" />
        </mxCell>
        <mxCell id="KtcMa4PKy6_l-OY6IkqE-9" value="300h&lt;div&gt;&lt;br&gt;&lt;/div&gt;&lt;div&gt;&lt;div&gt;EB, DF, MVR&lt;/div&gt;&lt;div&gt;+&lt;br&gt;&lt;/div&gt;1 doctorant·e&lt;/div&gt;" style="rounded=0;whiteSpace=wrap;html=1;dashed=1;fontSize=15;dashPattern=1 4;align=center;fillColor=#BDEDBD;strokeColor=none;" parent="KtcMa4PKy6_l-OY6IkqE-11" vertex="1">
          <mxGeometry x="580" width="220" height="93" as="geometry" />
        </mxCell>
        <mxCell id="1y57VVVnvO8If9CbTbJS-5" value="&lt;font style=&quot;font-size: 20px&quot; face=&quot;Lucida Console&quot; color=&quot;#4D4D4D&quot;&gt;&lt;b&gt;&lt;font style=&quot;font-size: 20px&quot;&gt;&lt;font style=&quot;font-size: 20px&quot;&gt;Ressources&lt;br&gt;&lt;/font&gt;&lt;/font&gt;&lt;/b&gt;&lt;/font&gt;" style="rounded=0;whiteSpace=wrap;html=1;strokeColor=none;rotation=-90;fillColor=none;" parent="KtcMa4PKy6_l-OY6IkqE-11" vertex="1">
          <mxGeometry x="341" y="94" width="457" height="20" as="geometry" />
        </mxCell>
        <mxCell id="1y57VVVnvO8If9CbTbJS-6" value="&lt;font face=&quot;Lucida Console&quot;&gt;&lt;b&gt;&lt;font style=&quot;font-size: 20px&quot; color=&quot;#4D4D4D&quot;&gt;Description&lt;/font&gt;&lt;/b&gt;&lt;/font&gt;" style="rounded=0;whiteSpace=wrap;html=1;strokeColor=none;rotation=-90;fillColor=none;" parent="KtcMa4PKy6_l-OY6IkqE-11" vertex="1">
          <mxGeometry x="100" y="95" width="455" height="20" as="geometry" />
        </mxCell>
        <mxCell id="1y57VVVnvO8If9CbTbJS-7" value="&lt;b&gt;&lt;font style=&quot;font-size: 20px&quot; face=&quot;Lucida Console&quot; color=&quot;#4D4D4D&quot;&gt;&lt;span style=&quot;font-style: normal ; letter-spacing: normal ; text-align: left ; text-indent: 0px ; text-transform: none ; word-spacing: 0px ; background-color: rgba(221 , 223 , 228 , 0.04) ; display: inline ; float: none&quot;&gt;Étape&lt;/span&gt;&lt;/font&gt;&lt;/b&gt;" style="rounded=0;whiteSpace=wrap;html=1;strokeColor=none;rotation=-90;fillColor=none;" parent="KtcMa4PKy6_l-OY6IkqE-11" vertex="1">
          <mxGeometry x="-144" y="96" width="455" height="20" as="geometry" />
        </mxCell>
        <mxCell id="KtcMa4PKy6_l-OY6IkqE-21" value="Septembre à&#xa;Janvier" style="swimlane;horizontal=0;startSize=70;fontSize=15;strokeWidth=1;strokeColor=none;fillColor=#A9D4A9;" parent="1" vertex="1">
          <mxGeometry y="625" width="800" height="120" as="geometry">
            <mxRectangle x="10" y="600" width="30" height="140" as="alternateBounds" />
          </mxGeometry>
        </mxCell>
        <mxCell id="KtcMa4PKy6_l-OY6IkqE-22" value="" style="edgeStyle=orthogonalEdgeStyle;rounded=0;orthogonalLoop=1;jettySize=auto;html=1;fontFamily=Garamond;fontSize=17;endSize=6;strokeWidth=3;startArrow=none;" parent="KtcMa4PKy6_l-OY6IkqE-21" edge="1">
          <mxGeometry relative="1" as="geometry">
            <mxPoint x="380" y="139" as="sourcePoint" />
            <mxPoint x="380" y="139" as="targetPoint" />
          </mxGeometry>
        </mxCell>
        <mxCell id="KtcMa4PKy6_l-OY6IkqE-23" value="&lt;div align=&quot;left&quot;&gt;3 grands types d&#39;approches :&lt;br&gt;- Word embeddings&lt;br&gt;- Topic modelling&lt;br&gt;- Mots récurrents et named entities&lt;/div&gt;" style="rounded=0;whiteSpace=wrap;html=1;dashed=1;fontSize=15;dashPattern=1 4;align=left;fillColor=#B5E3B5;strokeColor=none;" parent="KtcMa4PKy6_l-OY6IkqE-21" vertex="1">
          <mxGeometry x="338" y="13.5" width="220" height="93" as="geometry" />
        </mxCell>
        <mxCell id="KtcMa4PKy6_l-OY6IkqE-24" value="&lt;div&gt;780h&lt;br&gt;&lt;/div&gt;&lt;div&gt;DF, MVR&lt;/div&gt;&lt;div&gt;+&lt;br&gt;&lt;/div&gt;&lt;div&gt;3 doctorant·e·s&lt;/div&gt;&lt;div&gt;3 maîtrisant·e·s&lt;br&gt;&lt;/div&gt;" style="rounded=0;whiteSpace=wrap;html=1;dashed=1;fontSize=15;dashPattern=1 4;align=center;fillColor=#BDEDBD;strokeColor=none;" parent="KtcMa4PKy6_l-OY6IkqE-21" vertex="1">
          <mxGeometry x="580" y="13.5" width="220" height="93" as="geometry" />
        </mxCell>
        <mxCell id="KtcMa4PKy6_l-OY6IkqE-25" value="&lt;b&gt;4.&lt;/b&gt; &lt;b&gt;Expérimentation des méthodes algorithmiques&lt;br&gt;&lt;/b&gt;" style="rounded=0;whiteSpace=wrap;html=1;dashed=1;fontSize=15;dashPattern=1 4;align=center;fillColor=#B1DEB1;strokeColor=none;" parent="KtcMa4PKy6_l-OY6IkqE-21" vertex="1">
          <mxGeometry x="96" y="31.5" width="220" height="57" as="geometry" />
        </mxCell>
        <mxCell id="KtcMa4PKy6_l-OY6IkqE-31" value="Avril à&#xa;Juin" style="swimlane;horizontal=0;startSize=70;fontSize=15;strokeWidth=1;strokeColor=none;fillColor=#A9D4A9;" parent="1" vertex="1">
          <mxGeometry y="865" width="800" height="120" as="geometry" />
        </mxCell>
        <mxCell id="KtcMa4PKy6_l-OY6IkqE-32" value="" style="edgeStyle=orthogonalEdgeStyle;rounded=0;orthogonalLoop=1;jettySize=auto;html=1;fontFamily=Garamond;fontSize=17;endSize=6;strokeWidth=3;startArrow=none;" parent="KtcMa4PKy6_l-OY6IkqE-31" edge="1">
          <mxGeometry relative="1" as="geometry">
            <mxPoint x="380" y="139" as="sourcePoint" />
            <mxPoint x="380" y="139" as="targetPoint" />
          </mxGeometry>
        </mxCell>
        <mxCell id="KtcMa4PKy6_l-OY6IkqE-33" value="Faire une analyse approfondie des paramètres et variables qui constitueront l&#39;explicitation formelle des critères permettant de reconnaître une variation." style="rounded=0;whiteSpace=wrap;html=1;dashed=1;fontSize=15;dashPattern=1 4;align=left;fillColor=#B5E3B5;strokeColor=none;" parent="KtcMa4PKy6_l-OY6IkqE-31" vertex="1">
          <mxGeometry x="338" y="13.5" width="220" height="93" as="geometry" />
        </mxCell>
        <mxCell id="KtcMa4PKy6_l-OY6IkqE-34" value="EB, DF, MVR" style="rounded=0;whiteSpace=wrap;html=1;dashed=1;fontSize=15;dashPattern=1 4;align=center;fillColor=#BDEDBD;strokeColor=none;" parent="KtcMa4PKy6_l-OY6IkqE-31" vertex="1">
          <mxGeometry x="580" y="13.5" width="220" height="93" as="geometry" />
        </mxCell>
        <mxCell id="KtcMa4PKy6_l-OY6IkqE-35" value="&lt;b&gt;6.&lt;/b&gt; &lt;b&gt;Finalisation des modélisations algorithmiques&lt;/b&gt;" style="rounded=0;whiteSpace=wrap;html=1;dashed=1;fontSize=15;dashPattern=1 4;align=center;fillColor=#B1DEB1;strokeColor=none;" parent="KtcMa4PKy6_l-OY6IkqE-31" vertex="1">
          <mxGeometry x="96" y="31.5" width="220" height="57" as="geometry" />
        </mxCell>
        <mxCell id="1y57VVVnvO8If9CbTbJS-1" value="&lt;font style=&quot;font-size: 20px&quot; face=&quot;Lucida Console&quot;&gt;&lt;font style=&quot;font-size: 20px&quot;&gt;&lt;font color=&quot;#4D4D4D&quot;&gt;&lt;b&gt;Ressources&lt;/b&gt;&lt;/font&gt;&lt;br&gt;&lt;/font&gt;&lt;/font&gt;" style="rounded=0;whiteSpace=wrap;html=1;strokeColor=none;rotation=-90;fillColor=none;" parent="KtcMa4PKy6_l-OY6IkqE-31" vertex="1">
          <mxGeometry x="341.5" y="-11" width="455" height="20" as="geometry" />
        </mxCell>
        <mxCell id="1y57VVVnvO8If9CbTbJS-3" value="&lt;font face=&quot;Lucida Console&quot; color=&quot;#4D4D4D&quot;&gt;&lt;b&gt;&lt;font style=&quot;font-size: 20px&quot;&gt;Description&lt;/font&gt;&lt;/b&gt;&lt;/font&gt;" style="rounded=0;whiteSpace=wrap;html=1;strokeColor=none;rotation=-90;fillColor=none;" parent="KtcMa4PKy6_l-OY6IkqE-31" vertex="1">
          <mxGeometry x="99" y="-9.5" width="455" height="20" as="geometry" />
        </mxCell>
        <mxCell id="1y57VVVnvO8If9CbTbJS-4" value="&lt;b&gt;&lt;font style=&quot;font-size: 20px&quot; face=&quot;Lucida Console&quot; color=&quot;#4D4D4D&quot;&gt;&lt;span style=&quot;font-style: normal ; letter-spacing: normal ; text-align: left ; text-indent: 0px ; text-transform: none ; word-spacing: 0px ; background-color: rgba(221 , 223 , 228 , 0.04) ; display: inline ; float: none&quot;&gt;Étape&lt;/span&gt;&lt;/font&gt;&lt;/b&gt;" style="rounded=0;whiteSpace=wrap;html=1;strokeColor=none;rotation=-90;fillColor=none;" parent="KtcMa4PKy6_l-OY6IkqE-31" vertex="1">
          <mxGeometry x="-141" y="-9" width="455" height="20" as="geometry" />
        </mxCell>
        <mxCell id="KtcMa4PKy6_l-OY6IkqE-3" value="Septembre à&#xa;Janvier" style="swimlane;horizontal=0;startSize=69;fontSize=15;strokeWidth=1;strokeColor=none;fillColor=#D5E8E8;gradientColor=none;" parent="1" vertex="1">
          <mxGeometry x="1" y="93" width="799" height="135" as="geometry" />
        </mxCell>
        <mxCell id="KtcMa4PKy6_l-OY6IkqE-4" value="" style="edgeStyle=orthogonalEdgeStyle;rounded=0;orthogonalLoop=1;jettySize=auto;html=1;fontFamily=Garamond;fontSize=17;endSize=6;strokeWidth=3;startArrow=none;" parent="KtcMa4PKy6_l-OY6IkqE-3" edge="1">
          <mxGeometry relative="1" as="geometry">
            <mxPoint x="380" y="139" as="sourcePoint" />
            <mxPoint x="380" y="139" as="targetPoint" />
          </mxGeometry>
        </mxCell>
        <mxCell id="KtcMa4PKy6_l-OY6IkqE-5" value="&lt;b&gt;1. Définition du concept de variation&lt;/b&gt;" style="rounded=0;whiteSpace=wrap;html=1;dashed=1;fontSize=15;dashPattern=1 4;align=center;fillColor=#D5E8E8;strokeColor=none;gradientColor=none;gradientDirection=east;" parent="KtcMa4PKy6_l-OY6IkqE-3" vertex="1">
          <mxGeometry x="95" y="34" width="220" height="57" as="geometry" />
        </mxCell>
        <mxCell id="KtcMa4PKy6_l-OY6IkqE-7" value="&lt;div&gt;400h&lt;/div&gt;&lt;div&gt;&lt;br&gt;&lt;/div&gt;&lt;div&gt;EB, MVR&lt;/div&gt;&lt;div&gt;+&lt;br&gt;&lt;/div&gt;&lt;div&gt;1 doctorant·e&lt;br&gt;&lt;/div&gt;" style="rounded=0;whiteSpace=wrap;html=1;dashed=1;fontSize=15;dashPattern=1 4;align=center;fillColor=#DFFAFC;strokeColor=none;gradientColor=none;gradientDirection=east;" parent="KtcMa4PKy6_l-OY6IkqE-3" vertex="1">
          <mxGeometry x="579" y="16" width="220" height="93" as="geometry" />
        </mxCell>
        <mxCell id="KtcMa4PKy6_l-OY6IkqE-8" value="&lt;div align=&quot;left&quot;&gt;&lt;font style=&quot;font-size: 14px&quot;&gt;Faire un état de la littérature secondaire sur le concept de variation et produire une définition opérationnelle de ce concept.&lt;/font&gt;&lt;/div&gt;" style="rounded=0;whiteSpace=wrap;html=1;dashed=1;fontSize=15;dashPattern=1 4;align=left;fillColor=#D8F3F5;strokeColor=none;gradientColor=none;gradientDirection=east;" parent="KtcMa4PKy6_l-OY6IkqE-3" vertex="1">
          <mxGeometry x="337" y="15" width="220" height="93" as="geometry" />
        </mxCell>
        <mxCell id="R3BeI2WN0M2upQm-vhoh-2" value="&lt;b&gt;2.&lt;/b&gt; &lt;b&gt;Repérage et vérification des variations&lt;/b&gt;" style="rounded=0;whiteSpace=wrap;html=1;dashed=1;fontSize=15;dashPattern=1 4;align=center;fillColor=#B1DEB1;strokeColor=none;gradientColor=none;" parent="KtcMa4PKy6_l-OY6IkqE-3" vertex="1">
          <mxGeometry x="95" y="206" width="220" height="57" as="geometry" />
        </mxCell>
        <mxCell id="KtcMa4PKy6_l-OY6IkqE-6" value="&lt;div align=&quot;left&quot;&gt;&lt;font style=&quot;font-size: 14px&quot;&gt;Parcourir les 4 000 épigrammes de l&#39;anthologie en utilisant le balisage réalisé dans le projet de l&#39;édition numérique pour lister tous les cas de variation.&lt;/font&gt;&lt;/div&gt;" style="rounded=0;whiteSpace=wrap;html=1;dashed=1;fontSize=15;dashPattern=1 4;align=left;sketch=0;shadow=0;fillColor=#B5E3B5;strokeColor=none;" parent="KtcMa4PKy6_l-OY6IkqE-3" vertex="1">
          <mxGeometry x="337" y="135" width="220" height="93" as="geometry" />
        </mxCell>
      </root>
    </mxGraphModel>
  </diagram>
  <diagram id="GK8MpaVW0KsiUNnTzT1A" name="Page-2">
    <mxGraphModel dx="1350" dy="793" grid="1" gridSize="10" guides="1" tooltips="1" connect="1" arrows="1" fold="1" page="1" pageScale="1" pageWidth="827" pageHeight="1169" math="0" shadow="0">
      <root>
        <mxCell id="rvtYnJovJB2i6UnBzKns-0" />
        <mxCell id="rvtYnJovJB2i6UnBzKns-1" parent="rvtYnJovJB2i6UnBzKns-0" />
      </root>
    </mxGraphModel>
  </diagram>
</mxfile>
